<svg width="11" height="10" viewBox="0 0 11 10" fill="none" xmlns="http://www.w3.org/2000/svg">
<path d="M1.03041 7.6671H5.5L8.93694 10V7.6671H9.96847C10.5387 7.6671 11 7.21859 11 6.66776V0.999347C11 0.446331 10.5387 0 9.96959 0H1.03153C0.461327 0 0 0.44742 0 0.999347V6.66776C0 7.21859 0.462449 7.6671 1.03041 7.6671ZM0.686938 1.1659C0.686938 0.890486 0.918163 0.666231 1.20214 0.666231H9.79673C10.0807 0.666231 10.3119 0.890486 10.3119 1.1659V6.50011C10.3119 6.77662 10.0807 6.99978 9.79673 6.99978H8.25V8.66754L5.84459 6.99978H1.20439C0.920408 6.99978 0.689183 6.77662 0.689183 6.50011L0.686938 1.1659Z" fill="#142444"/>
</svg>
